<?xml version="1.0" encoding="UTF-8" standalone="no"?>
<!DOCTYPE svg PUBLIC "-//W3C//DTD SVG 1.1//EN" "http://www.w3.org/Graphics/SVG/1.1/DTD/svg11.dtd">
<svg width="100%" height="100%" viewBox="0 0 72 72" version="1.1" xmlns="http://www.w3.org/2000/svg" xmlns:xlink="http://www.w3.org/1999/xlink" xml:space="preserve" xmlns:serif="http://www.serif.com/" style="fill-rule:evenodd;clip-rule:evenodd;stroke-linejoin:round;stroke-miterlimit:2;">
    <g transform="matrix(0.0672699,0,0,0.0672699,12.9909,-0.0985396)">
        <path d="M341.797,1071.78C566.406,1071.78 684.082,938.477 684.082,684.57C684.082,528.809 677.734,390.137 668.945,295.898C650.391,87.891 554.199,1.465 341.797,1.465C129.883,1.465 33.691,87.891 14.648,295.898C5.859,390.137 0,528.809 0,684.57C0,938.477 117.188,1071.78 341.797,1071.78ZM341.797,993.164C168.457,993.164 78.613,887.695 78.613,684.57C78.613,538.086 83.984,400.391 93.262,303.223C107.91,136.719 169.922,80.078 341.797,80.078C513.672,80.078 576.172,136.719 590.82,303.223C599.609,400.391 605.469,538.086 605.469,684.57C605.469,887.695 515.137,993.164 341.797,993.164ZM59.082,366.699L625.488,366.699L625.488,302.734L59.082,302.734L59.082,366.699ZM310.547,334.473L374.512,334.961L374.512,51.758L310.547,51.27L310.547,334.473Z" style="fill-rule:nonzero;"/>
    </g>
</svg>
